<mxfile host="app.diagrams.net" agent="Mozilla/5.0 (Macintosh; Intel Mac OS X 10_15_7) AppleWebKit/537.36 (KHTML, like Gecko) Chrome/131.0.0.0 Safari/537.36" version="25.0.3">
  <diagram name="Страница — 1" id="AA9cZ-glA_Fp__WyKTjR">
    <mxGraphModel grid="1" page="1" gridSize="10" guides="1" tooltips="1" connect="1" arrows="1" fold="1" pageScale="1" pageWidth="827" pageHeight="1169" math="0" shadow="0">
      <root>
        <mxCell id="0" />
        <mxCell id="1" parent="0" />
        <mxCell id="nFB4tpNnGNIT1_HhN5Ei-163" style="edgeStyle=orthogonalEdgeStyle;rounded=0;orthogonalLoop=1;jettySize=auto;html=1;entryX=0.5;entryY=0;entryDx=0;entryDy=0;entryPerimeter=0;exitX=0.5;exitY=1;exitDx=0;exitDy=0;exitPerimeter=0;" edge="1" parent="1" source="nFB4tpNnGNIT1_HhN5Ei-214" target="qCtXWTkhoTMiNU-S6BVi-2">
          <mxGeometry relative="1" as="geometry">
            <mxPoint x="1510" y="420" as="targetPoint" />
            <mxPoint x="1510" y="210" as="sourcePoint" />
          </mxGeometry>
        </mxCell>
        <object placeholders="1" c4Name="Бизнес-аналитик" c4Type="Person" c4Description="Оптимизирует процессы и развивает прикладные бизнес-системы. Администрирует системы" label="&lt;font style=&quot;font-size: 16px&quot;&gt;&lt;b&gt;%c4Name%&lt;/b&gt;&lt;/font&gt;&lt;div&gt;[%c4Type%]&lt;/div&gt;&lt;br&gt;&lt;div&gt;&lt;font style=&quot;font-size: 11px&quot;&gt;&lt;font color=&quot;#cccccc&quot;&gt;%c4Description%&lt;/font&gt;&lt;/div&gt;" id="nFB4tpNnGNIT1_HhN5Ei-193">
          <mxCell style="html=1;fontSize=11;dashed=0;whiteSpace=wrap;fillColor=#083F75;strokeColor=#06315C;fontColor=#ffffff;shape=mxgraph.c4.person2;align=center;metaEdit=1;points=[[0.5,0,0],[1,0.5,0],[1,0.75,0],[0.75,1,0],[0.5,1,0],[0.25,1,0],[0,0.75,0],[0,0.5,0]];resizable=0;" vertex="1" parent="1">
            <mxGeometry x="320" y="585" width="200" height="180" as="geometry" />
          </mxCell>
        </object>
        <object placeholders="1" c4Name="Поставщик интеллектуальных услуг" c4Type="Software System" c4Description="Интеллектуальный домофон и шлагбаум" label="&lt;font style=&quot;font-size: 16px&quot;&gt;&lt;b&gt;%c4Name%&lt;/b&gt;&lt;/font&gt;&lt;div&gt;[%c4Type%]&lt;/div&gt;&lt;br&gt;&lt;div&gt;&lt;font style=&quot;font-size: 11px&quot;&gt;&lt;font color=&quot;#cccccc&quot;&gt;%c4Description%&lt;/font&gt;&lt;/div&gt;" id="uUZyYRChtU5mRD0YBa_O-10">
          <mxCell style="rounded=1;whiteSpace=wrap;html=1;labelBackgroundColor=none;fillColor=#8C8496;fontColor=#ffffff;align=center;arcSize=10;strokeColor=#736782;metaEdit=1;resizable=0;points=[[0.25,0,0],[0.5,0,0],[0.75,0,0],[1,0.25,0],[1,0.5,0],[1,0.75,0],[0.75,1,0],[0.5,1,0],[0.25,1,0],[0,0.75,0],[0,0.5,0],[0,0.25,0]];" vertex="1" parent="1">
            <mxGeometry x="1110" y="660" width="240" height="120" as="geometry" />
          </mxCell>
        </object>
        <object placeholders="1" c4Name="PropDevelopment" c4Type="Software System" c4Description="Предоставляет собственникам услуги умного шлагбаума и умного домофона" label="&lt;font style=&quot;font-size: 16px&quot;&gt;&lt;b&gt;%c4Name%&lt;/b&gt;&lt;/font&gt;&lt;div&gt;[%c4Type%]&lt;/div&gt;&lt;br&gt;&lt;div&gt;&lt;font style=&quot;font-size: 11px&quot;&gt;&lt;font color=&quot;#cccccc&quot;&gt;%c4Description%&lt;/font&gt;&lt;/div&gt;" id="qCtXWTkhoTMiNU-S6BVi-2">
          <mxCell style="rounded=1;whiteSpace=wrap;html=1;labelBackgroundColor=none;fillColor=#1061B0;fontColor=#ffffff;align=center;arcSize=10;strokeColor=#0D5091;metaEdit=1;resizable=0;points=[[0.25,0,0],[0.5,0,0],[0.75,0,0],[1,0.25,0],[1,0.5,0],[1,0.75,0],[0.75,1,0],[0.5,1,0],[0.25,1,0],[0,0.75,0],[0,0.5,0],[0,0.25,0]];" vertex="1" parent="1">
            <mxGeometry x="680" y="660" width="240" height="120" as="geometry" />
          </mxCell>
        </object>
        <mxCell id="qCtXWTkhoTMiNU-S6BVi-11" style="edgeStyle=orthogonalEdgeStyle;rounded=0;orthogonalLoop=1;jettySize=auto;html=1;exitX=1;exitY=0.5;exitDx=0;exitDy=0;exitPerimeter=0;entryX=0;entryY=0.5;entryDx=0;entryDy=0;entryPerimeter=0;" edge="1" parent="1" source="qCtXWTkhoTMiNU-S6BVi-2" target="uUZyYRChtU5mRD0YBa_O-10">
          <mxGeometry relative="1" as="geometry" />
        </mxCell>
        <mxCell id="qCtXWTkhoTMiNU-S6BVi-13" value="" style="group" vertex="1" connectable="0" parent="1">
          <mxGeometry x="700" y="280" width="210" height="300" as="geometry" />
        </mxCell>
        <mxCell id="nFB4tpNnGNIT1_HhN5Ei-196" value="" style="image;html=1;image=img/lib/clip_art/networking/Firewall_02_128x128.png" vertex="1" parent="qCtXWTkhoTMiNU-S6BVi-13">
          <mxGeometry x="60" y="220" width="80" height="80" as="geometry" />
        </mxCell>
        <mxCell id="nFB4tpNnGNIT1_HhN5Ei-198" value="Firewall" style="text;html=1;align=center;verticalAlign=middle;whiteSpace=wrap;rounded=0;" vertex="1" parent="qCtXWTkhoTMiNU-S6BVi-13">
          <mxGeometry x="150" y="245" width="60" height="30" as="geometry" />
        </mxCell>
        <object placeholders="1" c4Name="Собственник" c4Type="Person" c4Description="Клиент" label="&lt;font style=&quot;font-size: 16px&quot;&gt;&lt;b&gt;%c4Name%&lt;/b&gt;&lt;/font&gt;&lt;div&gt;[%c4Type%]&lt;/div&gt;&lt;br&gt;&lt;div&gt;&lt;font style=&quot;font-size: 11px&quot;&gt;&lt;font color=&quot;#cccccc&quot;&gt;%c4Description%&lt;/font&gt;&lt;/div&gt;" id="nFB4tpNnGNIT1_HhN5Ei-214">
          <mxCell style="html=1;fontSize=11;dashed=0;whiteSpace=wrap;fillColor=#083F75;strokeColor=#06315C;fontColor=#ffffff;shape=mxgraph.c4.person2;align=center;metaEdit=1;points=[[0.5,0,0],[1,0.5,0],[1,0.75,0],[0.75,1,0],[0.5,1,0],[0.25,1,0],[0,0.75,0],[0,0.5,0]];resizable=0;" vertex="1" parent="qCtXWTkhoTMiNU-S6BVi-13">
            <mxGeometry width="200" height="180" as="geometry" />
          </mxCell>
        </object>
        <mxCell id="qCtXWTkhoTMiNU-S6BVi-14" style="edgeStyle=orthogonalEdgeStyle;rounded=0;orthogonalLoop=1;jettySize=auto;html=1;exitX=1;exitY=0.75;exitDx=0;exitDy=0;exitPerimeter=0;entryX=0;entryY=0.5;entryDx=0;entryDy=0;entryPerimeter=0;" edge="1" parent="1" source="nFB4tpNnGNIT1_HhN5Ei-193" target="qCtXWTkhoTMiNU-S6BVi-2">
          <mxGeometry relative="1" as="geometry" />
        </mxCell>
        <mxCell id="jg3XzNEoURAPVNBd3z_3-5" value="" style="image;html=1;image=img/lib/clip_art/networking/Firewall_02_128x128.png" vertex="1" parent="1">
          <mxGeometry x="970" y="680" width="80" height="80" as="geometry" />
        </mxCell>
        <mxCell id="jg3XzNEoURAPVNBd3z_3-6" value="Firewall" style="text;html=1;align=center;verticalAlign=middle;whiteSpace=wrap;rounded=0;" vertex="1" parent="1">
          <mxGeometry x="980" y="770" width="60" height="30" as="geometry" />
        </mxCell>
      </root>
    </mxGraphModel>
  </diagram>
</mxfile>
